<svg width="328" height="320" viewBox="0 0 328 320" fill="none" xmlns="http://www.w3.org/2000/svg">
<path d="M320 160C320 248.366 248.366 320 160 320C71.6344 320 0 248.366 0 160C0 71.6344 71.6344 0 160 0C248.366 0 320 71.6344 320 160ZM2.59474 160C2.59474 246.933 73.0675 317.405 160 317.405C246.933 317.405 317.405 246.933 317.405 160C317.405 73.0675 246.933 2.59474 160 2.59474C73.0675 2.59474 2.59474 73.0675 2.59474 160Z" fill="#D0ECE0"/>
<path d="M286 160.5C286 229.812 229.812 286 160.5 286C91.1883 286 35 229.812 35 160.5C35 91.1883 91.1883 35 160.5 35C229.812 35 286 91.1883 286 160.5ZM37.0353 160.5C37.0353 228.688 92.3123 283.965 160.5 283.965C228.688 283.965 283.965 228.688 283.965 160.5C283.965 92.3123 228.688 37.0353 160.5 37.0353C92.3123 37.0353 37.0353 92.3123 37.0353 160.5Z" fill="#D1EBE0"/>
<path d="M261 160.5C261 216.005 216.005 261 160.5 261C104.995 261 60 216.005 60 160.5C60 104.995 104.995 60 160.5 60C216.005 60 261 104.995 261 160.5ZM61.6298 160.5C61.6298 215.104 105.896 259.37 160.5 259.37C215.104 259.37 259.37 215.104 259.37 160.5C259.37 105.896 215.104 61.6298 160.5 61.6298C105.896 61.6298 61.6298 105.896 61.6298 160.5Z" fill="#B9E2D2"/>
<rect x="10.4028" y="0.402834" width="160.194" height="45.1943" rx="11.6822" fill="#D7EEE6" stroke="#14B06C" stroke-width="0.805668"/>
<path d="M38.5526 27.3301V18.406H41.568C42.2681 18.406 42.8403 18.5324 43.2848 18.7851C43.7322 19.0349 44.0633 19.3734 44.2783 19.8004C44.4933 20.2274 44.6007 20.7038 44.6007 21.2296C44.6007 21.7554 44.4933 22.2333 44.2783 22.6632C44.0662 23.0932 43.738 23.436 43.2935 23.6916C42.8491 23.9443 42.2797 24.0707 41.5854 24.0707H39.4241V23.1121H41.5505C42.0299 23.1121 42.4148 23.0293 42.7053 22.8637C42.9958 22.6981 43.2064 22.4744 43.3371 22.1926C43.4707 21.908 43.5375 21.587 43.5375 21.2296C43.5375 20.8723 43.4707 20.5528 43.3371 20.271C43.2064 19.9892 42.9943 19.7684 42.7009 19.6087C42.4075 19.446 42.0182 19.3647 41.5331 19.3647H39.6333V27.3301H38.5526ZM48.9364 27.4695C48.2915 27.4695 47.7352 27.3272 47.2675 27.0425C46.8027 26.7549 46.444 26.354 46.1912 25.8398C45.9414 25.3227 45.8165 24.7214 45.8165 24.0358C45.8165 23.3503 45.9414 22.746 46.1912 22.2231C46.444 21.6973 46.7955 21.2877 47.2457 20.9943C47.6989 20.698 48.2276 20.5499 48.8318 20.5499C49.1804 20.5499 49.5247 20.608 49.8646 20.7242C50.2044 20.8404 50.5138 21.0292 50.7927 21.2906C51.0716 21.5492 51.2938 21.892 51.4594 22.319C51.625 22.746 51.7078 23.2718 51.7078 23.8964V24.3322H46.5485V23.4432H50.662C50.662 23.0656 50.5864 22.7286 50.4354 22.4323C50.2872 22.136 50.0752 21.9021 49.7992 21.7308C49.5261 21.5594 49.2037 21.4737 48.8318 21.4737C48.4222 21.4737 48.0678 21.5753 47.7686 21.7787C47.4723 21.9791 47.2443 22.2406 47.0845 22.563C46.9247 22.8855 46.8448 23.2312 46.8448 23.6001V24.1927C46.8448 24.6982 46.932 25.1267 47.1063 25.4782C47.2835 25.8268 47.529 26.0926 47.8427 26.2756C48.1564 26.4557 48.521 26.5457 48.9364 26.5457C49.2066 26.5457 49.4506 26.508 49.6685 26.4324C49.8892 26.354 50.0795 26.2378 50.2393 26.0838C50.3991 25.927 50.5225 25.7323 50.6097 25.4999L51.6032 25.7788C51.4986 26.1158 51.3228 26.4121 51.0759 26.6677C50.829 26.9205 50.524 27.118 50.1609 27.2604C49.7977 27.3998 49.3896 27.4695 48.9364 27.4695ZM53.2721 27.3301V20.637H54.2656V21.648H54.3353C54.4573 21.3168 54.6781 21.0481 54.9976 20.8418C55.3172 20.6356 55.6774 20.5325 56.0783 20.5325C56.1538 20.5325 56.2482 20.5339 56.3615 20.5368C56.4748 20.5397 56.5605 20.5441 56.6186 20.5499V21.5957C56.5837 21.587 56.5039 21.5739 56.3789 21.5565C56.2569 21.5361 56.1277 21.526 55.9911 21.526C55.6658 21.526 55.3753 21.5942 55.1196 21.7308C54.8669 21.8644 54.6665 22.0503 54.5183 22.2885C54.3731 22.5238 54.3004 22.7925 54.3004 23.0946V27.3301H53.2721ZM62.5785 22.136L61.6547 22.3974C61.5966 22.2435 61.5109 22.0939 61.3976 21.9486C61.2873 21.8005 61.1362 21.6785 60.9445 21.5826C60.7527 21.4867 60.5073 21.4388 60.2081 21.4388C59.7985 21.4388 59.4571 21.5332 59.1841 21.722C58.9139 21.908 58.7788 22.1447 58.7788 22.4323C58.7788 22.6879 58.8718 22.8898 59.0577 23.038C59.2436 23.1861 59.5341 23.3096 59.9292 23.4084L60.9227 23.6524C61.5211 23.7976 61.967 24.0199 62.2604 24.3191C62.5538 24.6154 62.7005 24.9974 62.7005 25.4651C62.7005 25.8485 62.5901 26.1913 62.3694 26.4934C62.1515 26.7956 61.8465 27.0338 61.4543 27.2081C61.0621 27.3824 60.606 27.4695 60.086 27.4695C59.4034 27.4695 58.8384 27.3214 58.391 27.0251C57.9436 26.7287 57.6604 26.2959 57.5413 25.7265L58.5174 25.4825C58.6103 25.8427 58.7861 26.1129 59.0446 26.293C59.3061 26.4731 59.6474 26.5632 60.0686 26.5632C60.5479 26.5632 60.9285 26.4615 61.2103 26.2581C61.495 26.0519 61.6373 25.805 61.6373 25.5174C61.6373 25.285 61.556 25.0903 61.3933 24.9335C61.2306 24.7737 60.9808 24.6546 60.6438 24.5762L59.5283 24.3147C58.9153 24.1695 58.4651 23.9443 58.1775 23.6393C57.8928 23.3314 57.7505 22.9465 57.7505 22.4846C57.7505 22.1069 57.8565 21.7729 58.0685 21.4824C58.2835 21.1919 58.5755 20.9638 58.9444 20.7983C59.3162 20.6327 59.7375 20.5499 60.2081 20.5499C60.8704 20.5499 61.3904 20.6951 61.768 20.9856C62.1486 21.2761 62.4187 21.6596 62.5785 22.136ZM66.9676 27.4695C66.3633 27.4695 65.8332 27.3257 65.3771 27.0381C64.9239 26.7505 64.5695 26.3482 64.3139 25.8311C64.0611 25.314 63.9348 24.7098 63.9348 24.0184C63.9348 23.3212 64.0611 22.7126 64.3139 22.1926C64.5695 21.6727 64.9239 21.2689 65.3771 20.9813C65.8332 20.6937 66.3633 20.5499 66.9676 20.5499C67.5718 20.5499 68.1005 20.6937 68.5537 20.9813C69.0098 21.2689 69.3642 21.6727 69.6169 22.1926C69.8725 22.7126 70.0003 23.3212 70.0003 24.0184C70.0003 24.7098 69.8725 25.314 69.6169 25.8311C69.3642 26.3482 69.0098 26.7505 68.5537 27.0381C68.1005 27.3257 67.5718 27.4695 66.9676 27.4695ZM66.9676 26.5457C67.4265 26.5457 67.8042 26.4281 68.1005 26.1928C68.3968 25.9575 68.6161 25.6481 68.7585 25.2646C68.9008 24.8812 68.972 24.4658 68.972 24.0184C68.972 23.571 68.9008 23.1542 68.7585 22.7678C68.6161 22.3815 68.3968 22.0692 68.1005 21.831C67.8042 21.5928 67.4265 21.4737 66.9676 21.4737C66.5086 21.4737 66.1309 21.5928 65.8346 21.831C65.5383 22.0692 65.319 22.3815 65.1766 22.7678C65.0343 23.1542 64.9631 23.571 64.9631 24.0184C64.9631 24.4658 65.0343 24.8812 65.1766 25.2646C65.319 25.6481 65.5383 25.9575 65.8346 26.1928C66.1309 26.4281 66.5086 26.5457 66.9676 26.5457ZM72.5985 23.3038V27.3301H71.5701V20.637H72.5636V21.6828H72.6508C72.8076 21.3429 73.0458 21.0699 73.3654 20.8636C73.6849 20.6545 74.0974 20.5499 74.6029 20.5499C75.0561 20.5499 75.4526 20.6428 75.7925 20.8288C76.1324 21.0118 76.3967 21.2906 76.5855 21.6654C76.7744 22.0372 76.8688 22.5078 76.8688 23.0772V27.3301H75.8404V23.1469C75.8404 22.6211 75.7039 22.2115 75.4308 21.9181C75.1578 21.6218 74.783 21.4737 74.3066 21.4737C73.9783 21.4737 73.6849 21.5448 73.4264 21.6872C73.1708 21.8295 72.9689 22.0372 72.8207 22.3103C72.6726 22.5834 72.5985 22.9145 72.5985 23.3038ZM80.7175 27.4869C80.2934 27.4869 79.9085 27.4071 79.5628 27.2473C79.2171 27.0846 78.9426 26.8508 78.7392 26.5457C78.5359 26.2378 78.4342 25.866 78.4342 25.4302C78.4342 25.0468 78.5097 24.7359 78.6608 24.4977C78.8118 24.2566 79.0137 24.0678 79.2665 23.9313C79.5192 23.7947 79.7981 23.6931 80.1031 23.6262C80.411 23.5565 80.7204 23.5013 81.0312 23.4607C81.4379 23.4084 81.7676 23.3692 82.0204 23.343C82.276 23.314 82.4619 23.266 82.5781 23.1992C82.6972 23.1324 82.7568 23.0162 82.7568 22.8506V22.8158C82.7568 22.3858 82.6391 22.0517 82.4038 21.8135C82.1714 21.5753 81.8185 21.4562 81.345 21.4562C80.854 21.4562 80.4691 21.5637 80.1902 21.7787C79.9114 21.9937 79.7153 22.2231 79.602 22.4672L78.6259 22.1186C78.8002 21.7119 79.0326 21.3952 79.3231 21.1686C79.6165 20.9391 79.9361 20.7794 80.2818 20.6893C80.6304 20.5964 80.9731 20.5499 81.3101 20.5499C81.5251 20.5499 81.772 20.576 82.0509 20.6283C82.3327 20.6777 82.6043 20.7808 82.8657 20.9377C83.1301 21.0946 83.3494 21.3313 83.5237 21.648C83.698 21.9646 83.7851 22.3887 83.7851 22.9203V27.3301H82.7568V26.4237H82.7045C82.6348 26.569 82.5186 26.7244 82.3559 26.89C82.1932 27.0556 81.9768 27.1964 81.7066 27.3126C81.4365 27.4288 81.1068 27.4869 80.7175 27.4869ZM80.8744 26.5632C81.2811 26.5632 81.6239 26.4833 81.9027 26.3235C82.1845 26.1637 82.3966 25.9575 82.5389 25.7047C82.6842 25.452 82.7568 25.1862 82.7568 24.9073V23.9661C82.7132 24.0184 82.6173 24.0663 82.4692 24.1099C82.3239 24.1506 82.1555 24.1869 81.9637 24.2189C81.7749 24.2479 81.5904 24.2741 81.4103 24.2973C81.2331 24.3176 81.0893 24.3351 80.9789 24.3496C80.7117 24.3844 80.4619 24.4411 80.2295 24.5195C80 24.595 79.8141 24.7098 79.6717 24.8638C79.5323 25.0148 79.4626 25.2211 79.4626 25.4825C79.4626 25.8398 79.5947 26.11 79.8591 26.293C80.1263 26.4731 80.4648 26.5632 80.8744 26.5632ZM86.6905 18.406V27.3301H85.6621V18.406H86.6905ZM92.5306 27.3301H91.3976L94.6744 18.406H95.7899L99.0667 27.3301H97.9338L95.267 19.8178H95.1973L92.5306 27.3301ZM92.9489 23.8441H97.5155V24.8028H92.9489V23.8441ZM105.058 22.136L104.134 22.3974C104.076 22.2435 103.991 22.0939 103.877 21.9486C103.767 21.8005 103.616 21.6785 103.424 21.5826C103.232 21.4867 102.987 21.4388 102.688 21.4388C102.278 21.4388 101.937 21.5332 101.664 21.722C101.394 21.908 101.259 22.1447 101.259 22.4323C101.259 22.6879 101.351 22.8898 101.537 23.038C101.723 23.1861 102.014 23.3096 102.409 23.4084L103.402 23.6524C104.001 23.7976 104.447 24.0199 104.74 24.3191C105.034 24.6154 105.18 24.9974 105.18 25.4651C105.18 25.8485 105.07 26.1913 104.849 26.4934C104.631 26.7956 104.326 27.0338 103.934 27.2081C103.542 27.3824 103.086 27.4695 102.566 27.4695C101.883 27.4695 101.318 27.3214 100.871 27.0251C100.423 26.7287 100.14 26.2959 100.021 25.7265L100.997 25.4825C101.09 25.8427 101.266 26.1129 101.524 26.293C101.786 26.4731 102.127 26.5632 102.548 26.5632C103.028 26.5632 103.408 26.4615 103.69 26.2581C103.975 26.0519 104.117 25.805 104.117 25.5174C104.117 25.285 104.036 25.0903 103.873 24.9335C103.71 24.7737 103.461 24.6546 103.124 24.5762L102.008 24.3147C101.395 24.1695 100.945 23.9443 100.657 23.6393C100.373 23.3314 100.23 22.9465 100.23 22.4846C100.23 22.1069 100.336 21.7729 100.548 21.4824C100.763 21.1919 101.055 20.9638 101.424 20.7983C101.796 20.6327 102.217 20.5499 102.688 20.5499C103.35 20.5499 103.87 20.6951 104.248 20.9856C104.628 21.2761 104.898 21.6596 105.058 22.136ZM111.469 22.136L110.545 22.3974C110.487 22.2435 110.402 22.0939 110.288 21.9486C110.178 21.8005 110.027 21.6785 109.835 21.5826C109.643 21.4867 109.398 21.4388 109.099 21.4388C108.689 21.4388 108.348 21.5332 108.075 21.722C107.805 21.908 107.669 22.1447 107.669 22.4323C107.669 22.6879 107.762 22.8898 107.948 23.038C108.134 23.1861 108.425 23.3096 108.82 23.4084L109.813 23.6524C110.412 23.7976 110.858 24.0199 111.151 24.3191C111.444 24.6154 111.591 24.9974 111.591 25.4651C111.591 25.8485 111.481 26.1913 111.26 26.4934C111.042 26.7956 110.737 27.0338 110.345 27.2081C109.953 27.3824 109.497 27.4695 108.977 27.4695C108.294 27.4695 107.729 27.3214 107.282 27.0251C106.834 26.7287 106.551 26.2959 106.432 25.7265L107.408 25.4825C107.501 25.8427 107.677 26.1129 107.935 26.293C108.197 26.4731 108.538 26.5632 108.959 26.5632C109.439 26.5632 109.819 26.4615 110.101 26.2581C110.386 26.0519 110.528 25.805 110.528 25.5174C110.528 25.285 110.447 25.0903 110.284 24.9335C110.121 24.7737 109.871 24.6546 109.534 24.5762L108.419 24.3147C107.806 24.1695 107.356 23.9443 107.068 23.6393C106.783 23.3314 106.641 22.9465 106.641 22.4846C106.641 22.1069 106.747 21.7729 106.959 21.4824C107.174 21.1919 107.466 20.9638 107.835 20.7983C108.207 20.6327 108.628 20.5499 109.099 20.5499C109.761 20.5499 110.281 20.6951 110.659 20.9856C111.039 21.2761 111.309 21.6596 111.469 22.136ZM113.139 27.3301V20.637H114.167V27.3301H113.139ZM113.662 19.5215C113.462 19.5215 113.289 19.4533 113.143 19.3167C113.001 19.1802 112.93 19.0161 112.93 18.8243C112.93 18.6326 113.001 18.4685 113.143 18.3319C113.289 18.1954 113.462 18.1271 113.662 18.1271C113.862 18.1271 114.034 18.1954 114.176 18.3319C114.321 18.4685 114.394 18.6326 114.394 18.8243C114.394 19.0161 114.321 19.1802 114.176 19.3167C114.034 19.4533 113.862 19.5215 113.662 19.5215ZM120.792 22.136L119.868 22.3974C119.81 22.2435 119.724 22.0939 119.611 21.9486C119.501 21.8005 119.35 21.6785 119.158 21.5826C118.966 21.4867 118.721 21.4388 118.421 21.4388C118.012 21.4388 117.671 21.5332 117.397 21.722C117.127 21.908 116.992 22.1447 116.992 22.4323C116.992 22.6879 117.085 22.8898 117.271 23.038C117.457 23.1861 117.748 23.3096 118.143 23.4084L119.136 23.6524C119.735 23.7976 120.18 24.0199 120.474 24.3191C120.767 24.6154 120.914 24.9974 120.914 25.4651C120.914 25.8485 120.804 26.1913 120.583 26.4934C120.365 26.7956 120.06 27.0338 119.668 27.2081C119.276 27.3824 118.819 27.4695 118.299 27.4695C117.617 27.4695 117.052 27.3214 116.604 27.0251C116.157 26.7287 115.874 26.2959 115.755 25.7265L116.731 25.4825C116.824 25.8427 116.999 26.1129 117.258 26.293C117.519 26.4731 117.861 26.5632 118.282 26.5632C118.761 26.5632 119.142 26.4615 119.424 26.2581C119.708 26.0519 119.851 25.805 119.851 25.5174C119.851 25.285 119.769 25.0903 119.607 24.9335C119.444 24.7737 119.194 24.6546 118.857 24.5762L117.742 24.3147C117.129 24.1695 116.678 23.9443 116.391 23.6393C116.106 23.3314 115.964 22.9465 115.964 22.4846C115.964 22.1069 116.07 21.7729 116.282 21.4824C116.497 21.1919 116.789 20.9638 117.158 20.7983C117.53 20.6327 117.951 20.5499 118.421 20.5499C119.084 20.5499 119.604 20.6951 119.981 20.9856C120.362 21.2761 120.632 21.6596 120.792 22.136ZM125.373 20.637V21.5085H121.904V20.637H125.373ZM122.915 19.0335H123.943V25.4128C123.943 25.7033 123.986 25.9212 124.07 26.0664C124.157 26.2088 124.267 26.3046 124.401 26.354C124.538 26.4005 124.681 26.4237 124.832 26.4237C124.946 26.4237 125.039 26.4179 125.111 26.4063C125.184 26.3918 125.242 26.3802 125.286 26.3714L125.495 27.2952C125.425 27.3214 125.328 27.3475 125.203 27.3737C125.078 27.4027 124.92 27.4172 124.728 27.4172C124.437 27.4172 124.153 27.3548 123.874 27.2299C123.598 27.1049 123.368 26.9147 123.185 26.659C123.005 26.4034 122.915 26.0809 122.915 25.6917V19.0335ZM128.889 27.4869C128.465 27.4869 128.08 27.4071 127.734 27.2473C127.389 27.0846 127.114 26.8508 126.911 26.5457C126.708 26.2378 126.606 25.866 126.606 25.4302C126.606 25.0468 126.681 24.7359 126.832 24.4977C126.983 24.2566 127.185 24.0678 127.438 23.9313C127.691 23.7947 127.97 23.6931 128.275 23.6262C128.583 23.5565 128.892 23.5013 129.203 23.4607C129.61 23.4084 129.939 23.3692 130.192 23.343C130.448 23.314 130.634 23.266 130.75 23.1992C130.869 23.1324 130.928 23.0162 130.928 22.8506V22.8158C130.928 22.3858 130.811 22.0517 130.575 21.8135C130.343 21.5753 129.99 21.4562 129.517 21.4562C129.026 21.4562 128.641 21.5637 128.362 21.7787C128.083 21.9937 127.887 22.2231 127.774 22.4672L126.798 22.1186C126.972 21.7119 127.204 21.3952 127.495 21.1686C127.788 20.9391 128.108 20.7794 128.453 20.6893C128.802 20.5964 129.145 20.5499 129.482 20.5499C129.697 20.5499 129.944 20.576 130.223 20.6283C130.504 20.6777 130.776 20.7808 131.037 20.9377C131.302 21.0946 131.521 21.3313 131.695 21.648C131.87 21.9646 131.957 22.3887 131.957 22.9203V27.3301H130.928V26.4237H130.876C130.806 26.569 130.69 26.7244 130.528 26.89C130.365 27.0556 130.148 27.1964 129.878 27.3126C129.608 27.4288 129.278 27.4869 128.889 27.4869ZM129.046 26.5632C129.453 26.5632 129.795 26.4833 130.074 26.3235C130.356 26.1637 130.568 25.9575 130.711 25.7047C130.856 25.452 130.928 25.1862 130.928 24.9073V23.9661C130.885 24.0184 130.789 24.0663 130.641 24.1099C130.496 24.1506 130.327 24.1869 130.135 24.2189C129.947 24.2479 129.762 24.2741 129.582 24.2973C129.405 24.3176 129.261 24.3351 129.151 24.3496C128.883 24.3844 128.634 24.4411 128.401 24.5195C128.172 24.595 127.986 24.7098 127.843 24.8638C127.704 25.0148 127.634 25.2211 127.634 25.4825C127.634 25.8398 127.766 26.11 128.031 26.293C128.298 26.4731 128.636 26.5632 129.046 26.5632ZM134.862 23.3038V27.3301H133.834V20.637H134.827V21.6828H134.914C135.071 21.3429 135.309 21.0699 135.629 20.8636C135.949 20.6545 136.361 20.5499 136.867 20.5499C137.32 20.5499 137.716 20.6428 138.056 20.8288C138.396 21.0118 138.66 21.2906 138.849 21.6654C139.038 22.0372 139.132 22.5078 139.132 23.0772V27.3301H138.104V23.1469C138.104 22.6211 137.968 22.2115 137.694 21.9181C137.421 21.6218 137.047 21.4737 136.57 21.4737C136.242 21.4737 135.949 21.5448 135.69 21.6872C135.434 21.8295 135.233 22.0372 135.084 22.3103C134.936 22.5834 134.862 22.9145 134.862 23.3038ZM143.922 20.637V21.5085H140.454V20.637H143.922ZM141.465 19.0335H142.493V25.4128C142.493 25.7033 142.535 25.9212 142.619 26.0664C142.707 26.2088 142.817 26.3046 142.951 26.354C143.087 26.4005 143.231 26.4237 143.382 26.4237C143.495 26.4237 143.588 26.4179 143.661 26.4063C143.734 26.3918 143.792 26.3802 143.835 26.3714L144.044 27.2952C143.975 27.3214 143.877 27.3475 143.752 27.3737C143.628 27.4027 143.469 27.4172 143.277 27.4172C142.987 27.4172 142.702 27.3548 142.423 27.2299C142.147 27.1049 141.918 26.9147 141.735 26.659C141.555 26.4034 141.465 26.0809 141.465 25.6917V19.0335Z" fill="black"/>
<rect x="205.403" y="61.4028" width="122.194" height="45.1943" rx="11.6822" fill="#D8EFE5" stroke="#14B16C" stroke-width="0.805668"/>
<path d="M224.584 87H223.608L226.432 79.3079H227.394L230.218 87H229.242L226.943 80.5248H226.883L224.584 87ZM224.945 83.9953H228.881V84.8216H224.945V83.9953ZM235.382 82.523L234.586 82.7483C234.536 82.6156 234.462 82.4867 234.365 82.3615C234.269 82.2338 234.139 82.1286 233.974 82.046C233.809 81.9633 233.597 81.922 233.339 81.922C232.986 81.922 232.692 82.0034 232.457 82.1662C232.224 82.3264 232.107 82.5305 232.107 82.7784C232.107 82.9987 232.187 83.1727 232.348 83.3004C232.508 83.4281 232.758 83.5346 233.099 83.6197L233.955 83.83C234.471 83.9552 234.855 84.1468 235.108 84.4047C235.361 84.6601 235.488 84.9893 235.488 85.3925C235.488 85.723 235.392 86.0185 235.202 86.2789C235.014 86.5393 234.751 86.7446 234.413 86.8948C234.075 87.0451 233.682 87.1202 233.234 87.1202C232.646 87.1202 232.159 86.9925 231.773 86.7371C231.387 86.4817 231.143 86.1086 231.041 85.6178L231.882 85.4075C231.962 85.718 232.114 85.9509 232.336 86.1061C232.562 86.2613 232.856 86.339 233.219 86.339C233.632 86.339 233.96 86.2513 234.203 86.0761C234.448 85.8983 234.571 85.6854 234.571 85.4375C234.571 85.2372 234.501 85.0695 234.361 84.9343C234.221 84.7965 234.005 84.6939 233.715 84.6263L232.753 84.4009C232.225 84.2757 231.837 84.0817 231.589 83.8188C231.344 83.5533 231.221 83.2216 231.221 82.8234C231.221 82.4979 231.312 82.21 231.495 81.9596C231.68 81.7092 231.932 81.5126 232.25 81.3699C232.571 81.2272 232.934 81.1558 233.339 81.1558C233.91 81.1558 234.358 81.281 234.684 81.5314C235.012 81.7818 235.245 82.1123 235.382 82.523ZM237.648 84.8967L237.633 83.8H237.813L240.337 81.231H241.434L238.745 83.9502H238.67L237.648 84.8967ZM236.822 87V79.3079H237.708V87H236.822ZM240.488 87L238.234 84.1455L238.865 83.5296L241.614 87H240.488ZM247.247 87.1352C246.882 87.1352 246.55 87.0664 246.252 86.9286C245.954 86.7884 245.717 86.5869 245.542 86.3239C245.367 86.0585 245.279 85.738 245.279 85.3624C245.279 85.0319 245.344 84.764 245.475 84.5587C245.605 84.3508 245.779 84.1881 245.997 84.0704C246.214 83.9527 246.455 83.8651 246.718 83.8075C246.983 83.7474 247.25 83.6998 247.518 83.6648C247.868 83.6197 248.152 83.5859 248.37 83.5634C248.591 83.5383 248.751 83.497 248.851 83.4394C248.954 83.3818 249.005 83.2817 249.005 83.1389V83.1089C249.005 82.7383 248.904 82.4504 248.701 82.245C248.501 82.0397 248.196 81.9371 247.788 81.9371C247.365 81.9371 247.033 82.0297 246.793 82.215C246.552 82.4003 246.383 82.5981 246.286 82.8084L245.444 82.508C245.595 82.1574 245.795 81.8845 246.045 81.6892C246.298 81.4914 246.574 81.3536 246.872 81.276C247.172 81.1959 247.468 81.1558 247.758 81.1558C247.943 81.1558 248.156 81.1784 248.397 81.2234C248.639 81.266 248.874 81.3549 249.099 81.4901C249.327 81.6253 249.516 81.8294 249.666 82.1023C249.816 82.3752 249.891 82.7408 249.891 83.199V87H249.005V86.2188H248.96C248.9 86.344 248.8 86.4779 248.66 86.6207C248.519 86.7634 248.333 86.8848 248.1 86.985C247.867 87.0851 247.583 87.1352 247.247 87.1352ZM247.383 86.339C247.733 86.339 248.029 86.2701 248.269 86.1324C248.512 85.9947 248.695 85.8169 248.817 85.5991C248.942 85.3812 249.005 85.1521 249.005 84.9117V84.1005C248.968 84.1455 248.885 84.1868 248.757 84.2244C248.632 84.2595 248.487 84.2908 248.321 84.3183C248.159 84.3433 248 84.3659 247.844 84.3859C247.692 84.4034 247.568 84.4185 247.473 84.431C247.242 84.461 247.027 84.5098 246.827 84.5775C246.629 84.6426 246.469 84.7415 246.346 84.8742C246.226 85.0044 246.166 85.1821 246.166 85.4075C246.166 85.7155 246.28 85.9484 246.507 86.1061C246.738 86.2613 247.029 86.339 247.383 86.339ZM252.396 83.5296V87H251.509V81.231H252.366V82.1324H252.441C252.576 81.8394 252.781 81.604 253.057 81.4263C253.332 81.246 253.688 81.1558 254.123 81.1558C254.514 81.1558 254.856 81.236 255.149 81.3962C255.442 81.554 255.67 81.7943 255.832 82.1173C255.995 82.4378 256.076 82.8435 256.076 83.3343V87H255.19V83.3943C255.19 82.9411 255.072 82.5881 254.837 82.3352C254.602 82.0798 254.279 81.9521 253.868 81.9521C253.585 81.9521 253.332 82.0134 253.109 82.1361C252.889 82.2588 252.715 82.4378 252.587 82.6732C252.46 82.9086 252.396 83.194 252.396 83.5296ZM258.061 89.1634C257.91 89.1634 257.776 89.1509 257.659 89.1258C257.541 89.1033 257.46 89.0808 257.415 89.0582L257.64 88.277C257.855 88.3321 258.045 88.3521 258.211 88.3371C258.376 88.3221 258.522 88.2482 258.65 88.1155C258.78 87.9853 258.899 87.7737 259.007 87.4808L259.172 87.03L257.039 81.231H258L259.593 85.8282H259.653L261.246 81.231H262.207L259.758 87.8413C259.648 88.1393 259.512 88.3859 259.349 88.5812C259.186 88.779 258.997 88.9255 258.782 89.0207C258.569 89.1158 258.328 89.1634 258.061 89.1634ZM270.288 89.1634V86.1136H270.213C270.148 86.2188 270.055 86.3515 269.935 86.5117C269.815 86.6695 269.643 86.811 269.42 86.9361C269.197 87.0588 268.901 87.1202 268.53 87.1202C268.049 87.1202 267.625 86.9987 267.257 86.7559C266.889 86.5105 266.601 86.1649 266.393 85.7192C266.185 85.271 266.081 84.7415 266.081 84.1305C266.081 83.5245 266.185 82.9987 266.393 82.553C266.601 82.1073 266.89 81.763 267.261 81.5202C267.631 81.2773 268.059 81.1558 268.545 81.1558C268.921 81.1558 269.217 81.2184 269.435 81.3436C269.656 81.4663 269.823 81.6065 269.939 81.7643C270.056 81.9195 270.148 82.0472 270.213 82.1474H270.318V81.231H271.174V89.1634H270.288ZM268.65 86.3239C269.006 86.3239 269.306 86.2313 269.552 86.046C269.797 85.8582 269.984 85.5991 270.111 85.2685C270.239 84.9355 270.303 84.5512 270.303 84.1155C270.303 83.6848 270.24 83.308 270.115 82.985C269.99 82.6594 269.805 82.4065 269.559 82.2263C269.314 82.0435 269.011 81.9521 268.65 81.9521C268.275 81.9521 267.962 82.0485 267.711 82.2413C267.463 82.4316 267.277 82.6907 267.152 83.0188C267.029 83.3443 266.968 83.7098 266.968 84.1155C266.968 84.5261 267.03 84.8992 267.155 85.2347C267.283 85.5678 267.471 85.8332 267.719 86.031C267.969 86.2263 268.28 86.3239 268.65 86.3239ZM276.432 84.6413V81.231H277.319V87H276.432V86.0235H276.372C276.237 86.3164 276.027 86.5656 275.741 86.7709C275.456 86.9737 275.095 87.0751 274.66 87.0751C274.299 87.0751 273.979 86.9962 273.698 86.8385C273.418 86.6782 273.197 86.4379 273.037 86.1174C272.877 85.7944 272.797 85.3875 272.797 84.8967V81.231H273.683V84.8366C273.683 85.2573 273.801 85.5928 274.036 85.8432C274.274 86.0936 274.577 86.2188 274.945 86.2188C275.165 86.2188 275.39 86.1624 275.617 86.0498C275.848 85.9371 276.041 85.7643 276.196 85.5314C276.354 85.2986 276.432 85.0019 276.432 84.6413ZM281.361 87.1202C280.805 87.1202 280.326 86.9975 279.923 86.7521C279.522 86.5042 279.213 86.1587 278.995 85.7155C278.78 85.2698 278.672 84.7515 278.672 84.1605C278.672 83.5696 278.78 83.0488 278.995 82.5981C279.213 82.1449 279.516 81.7918 279.904 81.5389C280.294 81.2835 280.75 81.1558 281.271 81.1558C281.571 81.1558 281.868 81.2059 282.161 81.3061C282.454 81.4062 282.721 81.569 282.961 81.7943C283.202 82.0172 283.393 82.3126 283.536 82.6807C283.679 83.0488 283.75 83.502 283.75 84.0404V84.4159H279.303V83.6497H282.848C282.848 83.3242 282.783 83.0338 282.653 82.7784C282.525 82.523 282.343 82.3214 282.105 82.1737C281.869 82.0259 281.591 81.9521 281.271 81.9521C280.918 81.9521 280.612 82.0397 280.355 82.215C280.099 82.3878 279.903 82.6131 279.765 82.8911C279.627 83.169 279.558 83.467 279.558 83.785V84.2958C279.558 84.7314 279.633 85.1008 279.784 85.4037C279.936 85.7042 280.148 85.9333 280.418 86.0911C280.689 86.2463 281.003 86.3239 281.361 86.3239C281.594 86.3239 281.804 86.2914 281.992 86.2263C282.182 86.1587 282.346 86.0585 282.484 85.9258C282.622 85.7906 282.728 85.6228 282.803 85.4225L283.66 85.6629C283.57 85.9534 283.418 86.2088 283.205 86.4291C282.992 86.6469 282.73 86.8172 282.417 86.9399C282.104 87.0601 281.752 87.1202 281.361 87.1202ZM289.185 82.523L288.388 82.7483C288.338 82.6156 288.264 82.4867 288.167 82.3615C288.072 82.2338 287.941 82.1286 287.776 82.046C287.611 81.9633 287.399 81.922 287.141 81.922C286.788 81.922 286.494 82.0034 286.259 82.1662C286.026 82.3264 285.91 82.5305 285.91 82.7784C285.91 82.9987 285.99 83.1727 286.15 83.3004C286.31 83.4281 286.561 83.5346 286.901 83.6197L287.757 83.83C288.273 83.9552 288.658 84.1468 288.91 84.4047C289.163 84.6601 289.29 84.9893 289.29 85.3925C289.29 85.723 289.195 86.0185 289.004 86.2789C288.817 86.5393 288.554 86.7446 288.216 86.8948C287.878 87.0451 287.484 87.1202 287.036 87.1202C286.448 87.1202 285.961 86.9925 285.575 86.7371C285.19 86.4817 284.946 86.1086 284.843 85.6178L285.684 85.4075C285.764 85.718 285.916 85.9509 286.139 86.1061C286.364 86.2613 286.658 86.339 287.021 86.339C287.434 86.339 287.762 86.2513 288.005 86.0761C288.251 85.8983 288.373 85.6854 288.373 85.4375C288.373 85.2372 288.303 85.0695 288.163 84.9343C288.023 84.7965 287.807 84.6939 287.517 84.6263L286.556 84.4009C286.027 84.2757 285.639 84.0817 285.391 83.8188C285.146 83.5533 285.023 83.2216 285.023 82.8234C285.023 82.4979 285.115 82.21 285.297 81.9596C285.483 81.7092 285.734 81.5126 286.052 81.3699C286.373 81.2272 286.736 81.1558 287.141 81.1558C287.712 81.1558 288.161 81.281 288.486 81.5314C288.814 81.7818 289.047 82.1123 289.185 82.523ZM293.133 81.231V81.9821H290.143V81.231H293.133ZM291.015 79.8488H291.901V85.3474C291.901 85.5978 291.937 85.7856 292.01 85.9108C292.085 86.0335 292.18 86.1161 292.295 86.1587C292.413 86.1987 292.537 86.2188 292.667 86.2188C292.765 86.2188 292.845 86.2138 292.908 86.2038C292.97 86.1912 293.02 86.1812 293.058 86.1737L293.238 86.97C293.178 86.9925 293.094 87.015 292.987 87.0376C292.879 87.0626 292.742 87.0751 292.577 87.0751C292.327 87.0751 292.081 87.0213 291.841 86.9136C291.603 86.8059 291.405 86.6419 291.248 86.4216C291.092 86.2012 291.015 85.9233 291.015 85.5878V79.8488ZM294.466 87V81.231H295.353V87H294.466ZM294.917 80.2694C294.744 80.2694 294.595 80.2106 294.47 80.0929C294.347 79.9752 294.286 79.8338 294.286 79.6685C294.286 79.5032 294.347 79.3618 294.47 79.2441C294.595 79.1264 294.744 79.0676 294.917 79.0676C295.09 79.0676 295.238 79.1264 295.36 79.2441C295.485 79.3618 295.548 79.5032 295.548 79.6685C295.548 79.8338 295.485 79.9752 295.36 80.0929C295.238 80.2106 295.09 80.2694 294.917 80.2694ZM299.32 87.1202C298.799 87.1202 298.342 86.9962 297.949 86.7484C297.558 86.5005 297.253 86.1537 297.033 85.708C296.815 85.2623 296.706 84.7415 296.706 84.1455C296.706 83.5446 296.815 83.02 297.033 82.5718C297.253 82.1236 297.558 81.7756 297.949 81.5277C298.342 81.2798 298.799 81.1558 299.32 81.1558C299.841 81.1558 300.296 81.2798 300.687 81.5277C301.08 81.7756 301.386 82.1236 301.604 82.5718C301.824 83.02 301.934 83.5446 301.934 84.1455C301.934 84.7415 301.824 85.2623 301.604 85.708C301.386 86.1537 301.08 86.5005 300.687 86.7484C300.296 86.9962 299.841 87.1202 299.32 87.1202ZM299.32 86.3239C299.716 86.3239 300.041 86.2225 300.296 86.0197C300.552 85.8169 300.741 85.5502 300.864 85.2197C300.986 84.8892 301.048 84.5311 301.048 84.1455C301.048 83.7599 300.986 83.4006 300.864 83.0676C300.741 82.7346 300.552 82.4654 300.296 82.2601C300.041 82.0547 299.716 81.9521 299.32 81.9521C298.924 81.9521 298.599 82.0547 298.343 82.2601C298.088 82.4654 297.899 82.7346 297.776 83.0676C297.654 83.4006 297.592 83.7599 297.592 84.1455C297.592 84.5311 297.654 84.8892 297.776 85.2197C297.899 85.5502 298.088 85.8169 298.343 86.0197C298.599 86.2225 298.924 86.3239 299.32 86.3239ZM304.173 83.5296V87H303.287V81.231H304.143V82.1324H304.219C304.354 81.8394 304.559 81.604 304.835 81.4263C305.11 81.246 305.465 81.1558 305.901 81.1558C306.292 81.1558 306.634 81.236 306.927 81.3962C307.219 81.554 307.447 81.7943 307.61 82.1173C307.773 82.4378 307.854 82.8435 307.854 83.3343V87H306.968V83.3943C306.968 82.9411 306.85 82.5881 306.615 82.3352C306.379 82.0798 306.056 81.9521 305.646 81.9521C305.363 81.9521 305.11 82.0134 304.887 82.1361C304.667 82.2588 304.493 82.4378 304.365 82.6732C304.237 82.9086 304.173 83.194 304.173 83.5296Z" fill="black"/>
<path d="M193.684 155.207C199.657 192.652 189.921 225.333 171.938 228.201C153.956 231.069 134.537 203.039 128.564 165.593C122.592 128.148 132.328 95.4679 150.31 92.5998C168.292 89.7318 187.712 117.762 193.684 155.207ZM137.928 164.1C142.183 190.777 156.017 210.746 168.828 208.703C181.639 206.659 188.575 183.377 184.32 156.701C180.066 130.024 166.231 110.055 153.42 112.098C140.609 114.141 133.673 137.423 137.928 164.1Z" fill="#14B16D"/>
<path d="M175.164 127.763C209.52 147.283 230.079 175.943 221.084 191.775C212.088 207.607 176.944 204.617 142.587 185.097C108.23 165.576 87.6714 136.917 96.6671 121.085C105.663 105.253 140.807 108.243 175.164 127.763ZM147.271 176.853C171.748 190.759 196.785 192.889 203.194 181.61C209.602 170.331 194.956 149.914 170.479 136.007C146.003 122.1 120.966 119.97 114.557 131.25C108.149 142.529 122.795 162.946 147.271 176.853Z" fill="#14B16D"/>
<path d="M178.879 187.751C144.912 207.943 109.834 211.623 100.529 195.97C91.2236 180.318 111.216 151.26 145.182 131.068C179.148 110.877 214.227 107.197 223.532 122.849C232.837 138.502 212.845 167.559 178.879 187.751ZM150.027 139.219C125.829 153.604 111.586 174.305 118.216 185.456C124.845 196.607 149.835 193.985 174.033 179.6C198.232 165.215 212.474 144.514 205.845 133.363C199.216 122.212 174.226 124.834 150.027 139.219Z" fill="#14B16D"/>
<ellipse cx="160.53" cy="159.76" rx="12.206" ry="12.2058" fill="#14B16D"/>
<rect x="13.4028" y="227.403" width="122.194" height="45.1943" rx="11.6822" fill="#CFECE0" stroke="#14B16A" stroke-width="0.805668"/>
<path d="M37.9786 253V245.308H42.6209V246.134H38.9101V248.733H42.3806V249.56H38.9101V252.174H42.681V253H37.9786ZM45.8773 253.135C45.5117 253.135 45.1799 253.066 44.882 252.929C44.584 252.788 44.3474 252.587 44.1721 252.324C43.9968 252.059 43.9092 251.738 43.9092 251.362C43.9092 251.032 43.9743 250.764 44.1045 250.559C44.2347 250.351 44.4087 250.188 44.6266 250.07C44.8444 249.953 45.0848 249.865 45.3477 249.807C45.6131 249.747 45.8798 249.7 46.1477 249.665C46.4983 249.62 46.7825 249.586 47.0003 249.563C47.2206 249.538 47.3809 249.497 47.4811 249.439C47.5837 249.382 47.635 249.282 47.635 249.139V249.109C47.635 248.738 47.5336 248.45 47.3308 248.245C47.1305 248.04 46.8263 247.937 46.4181 247.937C45.995 247.937 45.6632 248.03 45.4228 248.215C45.1824 248.4 45.0134 248.598 44.9158 248.808L44.0745 248.508C44.2247 248.157 44.425 247.884 44.6754 247.689C44.9283 247.491 45.2037 247.354 45.5017 247.276C45.8022 247.196 46.0976 247.156 46.3881 247.156C46.5734 247.156 46.7862 247.178 47.0266 247.223C47.2695 247.266 47.5036 247.355 47.7289 247.49C47.9568 247.625 48.1458 247.829 48.2961 248.102C48.4463 248.375 48.5214 248.741 48.5214 249.199V253H47.635V252.219H47.59C47.5299 252.344 47.4297 252.478 47.2895 252.621C47.1493 252.763 46.9627 252.885 46.7299 252.985C46.497 253.085 46.2128 253.135 45.8773 253.135ZM46.0125 252.339C46.3631 252.339 46.6585 252.27 46.8989 252.132C47.1418 251.995 47.3246 251.817 47.4473 251.599C47.5724 251.381 47.635 251.152 47.635 250.912V250.1C47.5975 250.146 47.5149 250.187 47.3872 250.224C47.262 250.259 47.1167 250.291 46.9515 250.318C46.7887 250.343 46.6297 250.366 46.4745 250.386C46.3217 250.403 46.1978 250.418 46.1026 250.431C45.8723 250.461 45.6569 250.51 45.4566 250.577C45.2588 250.643 45.0986 250.741 44.9759 250.874C44.8557 251.004 44.7956 251.182 44.7956 251.408C44.7956 251.715 44.9095 251.948 45.1374 252.106C45.3677 252.261 45.6594 252.339 46.0125 252.339ZM54.2257 248.523L53.4294 248.748C53.3794 248.616 53.3055 248.487 53.2078 248.361C53.1127 248.234 52.9825 248.129 52.8172 248.046C52.652 247.963 52.4404 247.922 52.1825 247.922C51.8294 247.922 51.5352 248.003 51.2999 248.166C51.067 248.326 50.9506 248.53 50.9506 248.778C50.9506 248.999 51.0307 249.173 51.1909 249.3C51.3512 249.428 51.6016 249.535 51.9421 249.62L52.7985 249.83C53.3143 249.955 53.6986 250.147 53.9515 250.405C54.2044 250.66 54.3309 250.989 54.3309 251.392C54.3309 251.723 54.2357 252.018 54.0454 252.279C53.8576 252.539 53.5947 252.745 53.2567 252.895C52.9186 253.045 52.5255 253.12 52.0773 253.12C51.4889 253.12 51.0019 252.992 50.6163 252.737C50.2307 252.482 49.9865 252.109 49.8839 251.618L50.7252 251.408C50.8053 251.718 50.9568 251.951 51.1797 252.106C51.405 252.261 51.6992 252.339 52.0623 252.339C52.4755 252.339 52.8035 252.251 53.0463 252.076C53.2917 251.898 53.4144 251.685 53.4144 251.438C53.4144 251.237 53.3443 251.069 53.2041 250.934C53.0639 250.797 52.8485 250.694 52.5581 250.626L51.5966 250.401C51.0682 250.276 50.6801 250.082 50.4322 249.819C50.1869 249.553 50.0642 249.222 50.0642 248.823C50.0642 248.498 50.1556 248.21 50.3383 247.96C50.5236 247.709 50.7753 247.513 51.0933 247.37C51.4138 247.227 51.7769 247.156 52.1825 247.156C52.7534 247.156 53.2016 247.281 53.5271 247.531C53.8551 247.782 54.088 248.112 54.2257 248.523ZM56.236 255.163C56.0858 255.163 55.9518 255.151 55.8342 255.126C55.7165 255.103 55.6351 255.081 55.59 255.058L55.8154 254.277C56.0307 254.332 56.221 254.352 56.3863 254.337C56.5515 254.322 56.698 254.248 56.8257 254.115C56.9559 253.985 57.0749 253.774 57.1825 253.481L57.3478 253.03L55.2144 247.231H56.1759L57.7684 251.828H57.8285L59.421 247.231H60.3825L57.9337 253.841C57.8235 254.139 57.6871 254.386 57.5243 254.581C57.3616 254.779 57.1725 254.926 56.9572 255.021C56.7443 255.116 56.504 255.163 56.236 255.163ZM67.0361 247.231V247.982H64.0464V247.231H67.0361ZM64.9178 245.849H65.8042V251.347C65.8042 251.598 65.8405 251.786 65.9131 251.911C65.9882 252.033 66.0834 252.116 66.1985 252.159C66.3162 252.199 66.4402 252.219 66.5704 252.219C66.668 252.219 66.7482 252.214 66.8107 252.204C66.8733 252.191 66.9234 252.181 66.961 252.174L67.1413 252.97C67.0812 252.992 66.9973 253.015 66.8896 253.038C66.782 253.063 66.6455 253.075 66.4802 253.075C66.2298 253.075 65.9845 253.021 65.7441 252.914C65.5062 252.806 65.3084 252.642 65.1506 252.422C64.9954 252.201 64.9178 251.923 64.9178 251.588V245.849ZM70.6511 253.12C70.1303 253.12 69.6734 252.996 69.2802 252.748C68.8896 252.5 68.5842 252.154 68.3638 251.708C68.146 251.262 68.037 250.741 68.037 250.146C68.037 249.545 68.146 249.02 68.3638 248.572C68.5842 248.124 68.8896 247.776 69.2802 247.528C69.6734 247.28 70.1303 247.156 70.6511 247.156C71.172 247.156 71.6277 247.28 72.0183 247.528C72.4114 247.776 72.7169 248.124 72.9347 248.572C73.1551 249.02 73.2652 249.545 73.2652 250.146C73.2652 250.741 73.1551 251.262 72.9347 251.708C72.7169 252.154 72.4114 252.5 72.0183 252.748C71.6277 252.996 71.172 253.12 70.6511 253.12ZM70.6511 252.324C71.0468 252.324 71.3723 252.223 71.6277 252.02C71.8831 251.817 72.0721 251.55 72.1948 251.22C72.3175 250.889 72.3789 250.531 72.3789 250.146C72.3789 249.76 72.3175 249.401 72.1948 249.068C72.0721 248.735 71.8831 248.465 71.6277 248.26C71.3723 248.055 71.0468 247.952 70.6511 247.952C70.2555 247.952 69.93 248.055 69.6746 248.26C69.4192 248.465 69.2302 248.735 69.1075 249.068C68.9848 249.401 68.9234 249.76 68.9234 250.146C68.9234 250.531 68.9848 250.889 69.1075 251.22C69.2302 251.55 69.4192 251.817 69.6746 252.02C69.93 252.223 70.2555 252.324 70.6511 252.324ZM78.0287 253H77.0521L79.8766 245.308H80.8381L83.6625 253H82.686L80.3874 246.525H80.3273L78.0287 253ZM78.3892 249.995H82.3254V250.822H78.3892V249.995ZM87.0841 253.12C86.5433 253.12 86.0775 252.992 85.6869 252.737C85.2963 252.482 84.9958 252.13 84.7855 251.682C84.5752 251.233 84.47 250.721 84.47 250.146C84.47 249.56 84.5777 249.043 84.793 248.594C85.0109 248.144 85.3138 247.792 85.7019 247.539C86.0926 247.284 86.5483 247.156 87.0691 247.156C87.4747 247.156 87.8403 247.231 88.1658 247.381C88.4913 247.531 88.758 247.742 88.9658 248.012C89.1736 248.283 89.3026 248.598 89.3527 248.959H88.4663C88.3987 248.696 88.2484 248.463 88.0156 248.26C87.7852 248.055 87.4747 247.952 87.0841 247.952C86.7386 247.952 86.4356 248.042 86.1752 248.223C85.9173 248.4 85.7157 248.652 85.5705 248.977C85.4278 249.3 85.3564 249.68 85.3564 250.115C85.3564 250.561 85.4265 250.949 85.5667 251.28C85.7095 251.61 85.9098 251.867 86.1677 252.05C86.4281 252.233 86.7336 252.324 87.0841 252.324C87.3145 252.324 87.5235 252.284 87.7113 252.204C87.8991 252.124 88.0581 252.008 88.1883 251.858C88.3185 251.708 88.4112 251.528 88.4663 251.317H89.3527C89.3026 251.658 89.1786 251.965 88.9808 252.238C88.7855 252.508 88.5264 252.723 88.2034 252.884C87.8829 253.041 87.5098 253.12 87.0841 253.12ZM92.9921 253.12C92.4513 253.12 91.9855 252.992 91.5949 252.737C91.2043 252.482 90.9039 252.13 90.6935 251.682C90.4832 251.233 90.378 250.721 90.378 250.146C90.378 249.56 90.4857 249.043 90.701 248.594C90.9189 248.144 91.2218 247.792 91.61 247.539C92.0006 247.284 92.4563 247.156 92.9771 247.156C93.3827 247.156 93.7483 247.231 94.0738 247.381C94.3993 247.531 94.666 247.742 94.8738 248.012C95.0817 248.283 95.2106 248.598 95.2607 248.959H94.3743C94.3067 248.696 94.1565 248.463 93.9236 248.26C93.6932 248.055 93.3827 247.952 92.9921 247.952C92.6466 247.952 92.3436 248.042 92.0832 248.223C91.8253 248.4 91.6237 248.652 91.4785 248.977C91.3358 249.3 91.2644 249.68 91.2644 250.115C91.2644 250.561 91.3345 250.949 91.4747 251.28C91.6175 251.61 91.8178 251.867 92.0757 252.05C92.3361 252.233 92.6416 252.324 92.9921 252.324C93.2225 252.324 93.4316 252.284 93.6194 252.204C93.8072 252.124 93.9662 252.008 94.0964 251.858C94.2266 251.708 94.3192 251.528 94.3743 251.317H95.2607C95.2106 251.658 95.0867 251.965 94.8889 252.238C94.6935 252.508 94.4344 252.723 94.1114 252.884C93.7909 253.041 93.4178 253.12 92.9921 253.12ZM98.9753 253.12C98.4194 253.12 97.9399 252.997 97.5368 252.752C97.1361 252.504 96.8269 252.159 96.609 251.715C96.3937 251.27 96.286 250.751 96.286 250.161C96.286 249.57 96.3937 249.049 96.609 248.598C96.8269 248.145 97.1299 247.792 97.518 247.539C97.9086 247.284 98.3643 247.156 98.8851 247.156C99.1856 247.156 99.4823 247.206 99.7753 247.306C100.068 247.406 100.335 247.569 100.575 247.794C100.816 248.017 101.007 248.313 101.15 248.681C101.293 249.049 101.364 249.502 101.364 250.04V250.416H96.917V249.65H100.463C100.463 249.324 100.397 249.034 100.267 248.778C100.14 248.523 99.9568 248.321 99.7189 248.174C99.4836 248.026 99.2056 247.952 98.8851 247.952C98.5321 247.952 98.2266 248.04 97.9687 248.215C97.7133 248.388 97.5167 248.613 97.379 248.891C97.2413 249.169 97.1724 249.467 97.1724 249.785V250.296C97.1724 250.731 97.2475 251.101 97.3978 251.404C97.5505 251.704 97.7621 251.933 98.0325 252.091C98.303 252.246 98.6172 252.324 98.9753 252.324C99.2081 252.324 99.4185 252.291 99.6062 252.226C99.7965 252.159 99.9606 252.059 100.098 251.926C100.236 251.791 100.342 251.623 100.418 251.423L101.274 251.663C101.184 251.953 101.032 252.209 100.819 252.429C100.607 252.647 100.344 252.817 100.031 252.94C99.7177 253.06 99.3659 253.12 98.9753 253.12ZM106.799 248.523L106.003 248.748C105.952 248.616 105.879 248.487 105.781 248.361C105.686 248.234 105.556 248.129 105.39 248.046C105.225 247.963 105.013 247.922 104.756 247.922C104.403 247.922 104.108 248.003 103.873 248.166C103.64 248.326 103.524 248.53 103.524 248.778C103.524 248.999 103.604 249.173 103.764 249.3C103.924 249.428 104.175 249.535 104.515 249.62L105.372 249.83C105.887 249.955 106.272 250.147 106.525 250.405C106.777 250.66 106.904 250.989 106.904 251.392C106.904 251.723 106.809 252.018 106.618 252.279C106.431 252.539 106.168 252.745 105.83 252.895C105.492 253.045 105.099 253.12 104.65 253.12C104.062 253.12 103.575 252.992 103.189 252.737C102.804 252.482 102.56 252.109 102.457 251.618L103.298 251.408C103.378 251.718 103.53 251.951 103.753 252.106C103.978 252.261 104.272 252.339 104.635 252.339C105.049 252.339 105.377 252.251 105.619 252.076C105.865 251.898 105.988 251.685 105.988 251.438C105.988 251.237 105.917 251.069 105.777 250.934C105.637 250.797 105.422 250.694 105.131 250.626L104.17 250.401C103.641 250.276 103.253 250.082 103.005 249.819C102.76 249.553 102.637 249.222 102.637 248.823C102.637 248.498 102.729 248.21 102.911 247.96C103.097 247.709 103.348 247.513 103.666 247.37C103.987 247.227 104.35 247.156 104.756 247.156C105.326 247.156 105.775 247.281 106.1 247.531C106.428 247.782 106.661 248.112 106.799 248.523ZM112.325 248.523L111.528 248.748C111.478 248.616 111.404 248.487 111.307 248.361C111.212 248.234 111.081 248.129 110.916 248.046C110.751 247.963 110.539 247.922 110.281 247.922C109.928 247.922 109.634 248.003 109.399 248.166C109.166 248.326 109.05 248.53 109.05 248.778C109.05 248.999 109.13 249.173 109.29 249.3C109.45 249.428 109.701 249.535 110.041 249.62L110.897 249.83C111.413 249.955 111.798 250.147 112.05 250.405C112.303 250.66 112.43 250.989 112.43 251.392C112.43 251.723 112.335 252.018 112.144 252.279C111.957 252.539 111.694 252.745 111.356 252.895C111.018 253.045 110.624 253.12 110.176 253.12C109.588 253.12 109.101 252.992 108.715 252.737C108.33 252.482 108.085 252.109 107.983 251.618L108.824 251.408C108.904 251.718 109.056 251.951 109.279 252.106C109.504 252.261 109.798 252.339 110.161 252.339C110.574 252.339 110.902 252.251 111.145 252.076C111.391 251.898 111.513 251.685 111.513 251.438C111.513 251.237 111.443 251.069 111.303 250.934C111.163 250.797 110.947 250.694 110.657 250.626L109.696 250.401C109.167 250.276 108.779 250.082 108.531 249.819C108.286 249.553 108.163 249.222 108.163 248.823C108.163 248.498 108.255 248.21 108.437 247.96C108.623 247.709 108.874 247.513 109.192 247.37C109.513 247.227 109.876 247.156 110.281 247.156C110.852 247.156 111.301 247.281 111.626 247.531C111.954 247.782 112.187 248.112 112.325 248.523Z" fill="black"/>
<rect x="157.403" y="266.403" width="160.194" height="45.1943" rx="11.6822" fill="#D7EEE6" stroke="#14B06C" stroke-width="0.805668"/>
<path d="M180.429 284.406H181.51V290.315C181.51 290.925 181.366 291.469 181.079 291.949C180.794 292.425 180.392 292.801 179.872 293.077C179.352 293.35 178.742 293.487 178.041 293.487C177.341 293.487 176.731 293.35 176.211 293.077C175.691 292.801 175.288 292.425 175 291.949C174.715 291.469 174.573 290.925 174.573 290.315V284.406H175.654V290.228C175.654 290.663 175.749 291.051 175.941 291.391C176.133 291.728 176.406 291.994 176.76 292.188C177.118 292.38 177.545 292.476 178.041 292.476C178.538 292.476 178.965 292.38 179.323 292.188C179.68 291.994 179.953 291.728 180.142 291.391C180.333 291.051 180.429 290.663 180.429 290.228V284.406ZM184.557 289.304V293.33H183.529V286.637H184.522V287.683H184.609C184.766 287.343 185.004 287.07 185.324 286.864C185.643 286.654 186.056 286.55 186.561 286.55C187.015 286.55 187.411 286.643 187.751 286.829C188.091 287.012 188.355 287.291 188.544 287.665C188.733 288.037 188.827 288.508 188.827 289.077V293.33H187.799V289.147C187.799 288.621 187.662 288.212 187.389 287.918C187.116 287.622 186.741 287.474 186.265 287.474C185.937 287.474 185.643 287.545 185.385 287.687C185.129 287.83 184.927 288.037 184.779 288.31C184.631 288.583 184.557 288.915 184.557 289.304ZM191.735 284.406V293.33H190.706V284.406H191.735ZM193.618 293.33V286.637H194.647V293.33H193.618ZM194.141 285.522C193.941 285.522 193.768 285.453 193.623 285.317C193.48 285.18 193.409 285.016 193.409 284.824C193.409 284.633 193.48 284.468 193.623 284.332C193.768 284.195 193.941 284.127 194.141 284.127C194.342 284.127 194.513 284.195 194.655 284.332C194.801 284.468 194.873 284.633 194.873 284.824C194.873 285.016 194.801 285.18 194.655 285.317C194.513 285.453 194.342 285.522 194.141 285.522ZM196.53 293.33V286.637H197.524V287.683H197.611C197.75 287.326 197.975 287.048 198.286 286.851C198.597 286.65 198.97 286.55 199.406 286.55C199.848 286.55 200.215 286.65 200.508 286.851C200.805 287.048 201.036 287.326 201.201 287.683H201.271C201.442 287.337 201.699 287.063 202.042 286.859C202.385 286.653 202.796 286.55 203.275 286.55C203.874 286.55 204.363 286.737 204.744 287.112C205.124 287.484 205.315 288.063 205.315 288.851V293.33H204.286V288.851C204.286 288.357 204.151 288.004 203.881 287.792C203.611 287.58 203.293 287.474 202.927 287.474C202.456 287.474 202.092 287.616 201.833 287.901C201.575 288.182 201.445 288.54 201.445 288.973V293.33H200.4V288.746C200.4 288.365 200.276 288.059 200.029 287.827C199.782 287.591 199.464 287.474 199.075 287.474C198.808 287.474 198.558 287.545 198.325 287.687C198.096 287.83 197.91 288.027 197.768 288.28C197.628 288.53 197.558 288.819 197.558 289.147V293.33H196.53ZM207.195 293.33V286.637H208.223V293.33H207.195ZM207.718 285.522C207.517 285.522 207.345 285.453 207.199 285.317C207.057 285.18 206.986 285.016 206.986 284.824C206.986 284.633 207.057 284.468 207.199 284.332C207.345 284.195 207.517 284.127 207.718 284.127C207.918 284.127 208.09 284.195 208.232 284.332C208.377 284.468 208.45 284.633 208.45 284.824C208.45 285.016 208.377 285.18 208.232 285.317C208.09 285.453 207.918 285.522 207.718 285.522ZM213.018 286.637V287.509H209.549V286.637H213.018ZM210.56 285.033H211.588V291.413C211.588 291.703 211.63 291.921 211.715 292.066C211.802 292.209 211.912 292.305 212.046 292.354C212.182 292.4 212.326 292.424 212.477 292.424C212.591 292.424 212.684 292.418 212.756 292.406C212.829 292.392 212.887 292.38 212.93 292.371L213.14 293.295C213.07 293.321 212.973 293.348 212.848 293.374C212.723 293.403 212.564 293.417 212.373 293.417C212.082 293.417 211.798 293.355 211.519 293.23C211.243 293.105 211.013 292.915 210.83 292.659C210.65 292.403 210.56 292.081 210.56 291.692V285.033ZM217.299 293.47C216.654 293.47 216.098 293.327 215.63 293.042C215.165 292.755 214.806 292.354 214.554 291.84C214.304 291.323 214.179 290.721 214.179 290.036C214.179 289.35 214.304 288.746 214.554 288.223C214.806 287.697 215.158 287.288 215.608 286.994C216.061 286.698 216.59 286.55 217.194 286.55C217.543 286.55 217.887 286.608 218.227 286.724C218.567 286.84 218.876 287.029 219.155 287.291C219.434 287.549 219.656 287.892 219.822 288.319C219.987 288.746 220.07 289.272 220.07 289.896V290.332H214.911V289.443H219.024C219.024 289.066 218.949 288.729 218.798 288.432C218.65 288.136 218.438 287.902 218.162 287.731C217.889 287.559 217.566 287.474 217.194 287.474C216.785 287.474 216.43 287.575 216.131 287.779C215.835 287.979 215.607 288.241 215.447 288.563C215.287 288.885 215.207 289.231 215.207 289.6V290.193C215.207 290.698 215.294 291.127 215.469 291.478C215.646 291.827 215.891 292.093 216.205 292.276C216.519 292.456 216.883 292.546 217.299 292.546C217.569 292.546 217.813 292.508 218.031 292.432C218.252 292.354 218.442 292.238 218.602 292.084C218.761 291.927 218.885 291.732 218.972 291.5L219.966 291.779C219.861 292.116 219.685 292.412 219.438 292.668C219.191 292.92 218.886 293.118 218.523 293.26C218.16 293.4 217.752 293.47 217.299 293.47ZM224.162 293.47C223.604 293.47 223.112 293.329 222.685 293.047C222.258 292.762 221.924 292.361 221.682 291.844C221.441 291.324 221.321 290.71 221.321 290.001C221.321 289.298 221.441 288.688 221.682 288.171C221.924 287.654 222.259 287.254 222.689 286.973C223.119 286.691 223.616 286.55 224.179 286.55C224.615 286.55 224.959 286.623 225.212 286.768C225.468 286.91 225.662 287.073 225.796 287.256C225.932 287.436 226.038 287.584 226.114 287.7H226.201V284.406H227.229V293.33H226.236V292.302H226.114C226.038 292.424 225.931 292.578 225.791 292.764C225.652 292.947 225.453 293.111 225.195 293.256C224.936 293.398 224.592 293.47 224.162 293.47ZM224.301 292.546C224.714 292.546 225.062 292.438 225.347 292.223C225.632 292.005 225.848 291.705 225.996 291.321C226.144 290.935 226.219 290.489 226.219 289.984C226.219 289.484 226.146 289.047 226.001 288.672C225.855 288.294 225.64 288.001 225.356 287.792C225.071 287.58 224.72 287.474 224.301 287.474C223.865 287.474 223.502 287.586 223.212 287.809C222.924 288.03 222.708 288.331 222.563 288.711C222.42 289.089 222.349 289.513 222.349 289.984C222.349 290.46 222.422 290.893 222.567 291.282C222.715 291.668 222.933 291.976 223.221 292.206C223.511 292.432 223.871 292.546 224.301 292.546ZM237.727 286.637C237.674 286.195 237.462 285.853 237.09 285.609C236.719 285.365 236.262 285.243 235.722 285.243C235.327 285.243 234.981 285.307 234.685 285.434C234.392 285.562 234.162 285.738 233.997 285.962C233.834 286.185 233.753 286.439 233.753 286.724C233.753 286.962 233.809 287.167 233.922 287.339C234.039 287.507 234.187 287.648 234.367 287.761C234.547 287.872 234.736 287.963 234.933 288.036C235.131 288.105 235.313 288.162 235.478 288.206L236.384 288.45C236.617 288.511 236.875 288.595 237.16 288.702C237.448 288.81 237.722 288.957 237.984 289.143C238.248 289.326 238.466 289.561 238.637 289.848C238.809 290.136 238.894 290.489 238.894 290.907C238.894 291.39 238.768 291.825 238.515 292.215C238.265 292.604 237.899 292.913 237.417 293.143C236.938 293.372 236.355 293.487 235.67 293.487C235.031 293.487 234.477 293.384 234.01 293.178C233.545 292.971 233.179 292.684 232.912 292.315C232.647 291.946 232.498 291.517 232.463 291.029H233.578C233.607 291.366 233.721 291.645 233.918 291.866C234.119 292.084 234.371 292.247 234.676 292.354C234.984 292.459 235.315 292.511 235.67 292.511C236.082 292.511 236.453 292.444 236.781 292.31C237.109 292.174 237.369 291.985 237.561 291.744C237.753 291.5 237.849 291.215 237.849 290.89C237.849 290.594 237.766 290.352 237.6 290.167C237.435 289.981 237.217 289.83 236.947 289.713C236.676 289.597 236.384 289.496 236.071 289.408L234.973 289.095C234.275 288.894 233.724 288.608 233.317 288.236C232.91 287.864 232.707 287.378 232.707 286.776C232.707 286.277 232.842 285.841 233.112 285.469C233.385 285.094 233.751 284.804 234.21 284.598C234.672 284.389 235.188 284.284 235.757 284.284C236.332 284.284 236.843 284.387 237.291 284.593C237.738 284.797 238.093 285.076 238.354 285.43C238.618 285.784 238.758 286.187 238.772 286.637H237.727ZM244.75 290.594V286.637H245.778V293.33H244.75V292.197H244.68C244.523 292.537 244.279 292.826 243.948 293.064C243.617 293.3 243.198 293.417 242.693 293.417C242.275 293.417 241.903 293.326 241.577 293.143C241.252 292.957 240.996 292.678 240.811 292.306C240.625 291.931 240.532 291.459 240.532 290.89V286.637H241.56V290.82C241.56 291.308 241.697 291.697 241.97 291.988C242.246 292.278 242.597 292.424 243.024 292.424C243.28 292.424 243.54 292.358 243.804 292.228C244.071 292.097 244.295 291.896 244.475 291.626C244.658 291.356 244.75 291.012 244.75 290.594ZM250.363 295.979C249.866 295.979 249.439 295.916 249.082 295.788C248.725 295.663 248.427 295.497 248.189 295.291C247.953 295.088 247.766 294.87 247.627 294.637L248.446 294.062C248.539 294.184 248.656 294.324 248.799 294.48C248.941 294.64 249.136 294.778 249.383 294.894C249.633 295.014 249.959 295.073 250.363 295.073C250.903 295.073 251.349 294.942 251.701 294.681C252.052 294.419 252.228 294.01 252.228 293.452V292.093H252.141C252.065 292.215 251.958 292.366 251.819 292.546C251.682 292.723 251.484 292.881 251.226 293.021C250.97 293.157 250.625 293.225 250.189 293.225C249.649 293.225 249.163 293.098 248.733 292.842C248.306 292.586 247.968 292.215 247.718 291.727C247.471 291.239 247.348 290.646 247.348 289.949C247.348 289.263 247.468 288.666 247.709 288.158C247.951 287.647 248.286 287.251 248.716 286.973C249.146 286.691 249.643 286.55 250.206 286.55C250.642 286.55 250.988 286.623 251.243 286.768C251.502 286.91 251.699 287.073 251.836 287.256C251.975 287.436 252.083 287.584 252.158 287.7H252.263V286.637H253.257V293.522C253.257 294.097 253.126 294.565 252.864 294.925C252.606 295.288 252.257 295.554 251.819 295.722C251.383 295.894 250.898 295.979 250.363 295.979ZM250.328 292.302C250.741 292.302 251.089 292.207 251.374 292.018C251.659 291.83 251.875 291.558 252.023 291.204C252.172 290.849 252.246 290.425 252.246 289.931C252.246 289.449 252.173 289.023 252.028 288.655C251.882 288.286 251.667 287.997 251.383 287.787C251.098 287.578 250.747 287.474 250.328 287.474C249.893 287.474 249.529 287.584 249.239 287.805C248.951 288.026 248.735 288.322 248.59 288.694C248.447 289.066 248.376 289.478 248.376 289.931C248.376 290.396 248.449 290.807 248.594 291.164C248.742 291.519 248.96 291.798 249.248 292.001C249.538 292.201 249.898 292.302 250.328 292.302ZM257.841 295.979C257.344 295.979 256.917 295.916 256.559 295.788C256.202 295.663 255.904 295.497 255.666 295.291C255.431 295.088 255.244 294.87 255.104 294.637L255.923 294.062C256.016 294.184 256.134 294.324 256.276 294.48C256.419 294.64 256.613 294.778 256.86 294.894C257.11 295.014 257.437 295.073 257.841 295.073C258.381 295.073 258.827 294.942 259.178 294.681C259.53 294.419 259.706 294.01 259.706 293.452V292.093H259.618C259.543 292.215 259.435 292.366 259.296 292.546C259.159 292.723 258.962 292.881 258.703 293.021C258.448 293.157 258.102 293.225 257.666 293.225C257.126 293.225 256.641 293.098 256.211 292.842C255.784 292.586 255.445 292.215 255.196 291.727C254.949 291.239 254.825 290.646 254.825 289.949C254.825 289.263 254.946 288.666 255.187 288.158C255.428 287.647 255.764 287.251 256.193 286.973C256.623 286.691 257.12 286.55 257.684 286.55C258.119 286.55 258.465 286.623 258.721 286.768C258.979 286.91 259.177 287.073 259.313 287.256C259.453 287.436 259.56 287.584 259.636 287.7H259.74V286.637H260.734V293.522C260.734 294.097 260.603 294.565 260.342 294.925C260.083 295.288 259.735 295.554 259.296 295.722C258.86 295.894 258.375 295.979 257.841 295.979ZM257.806 292.302C258.218 292.302 258.567 292.207 258.851 292.018C259.136 291.83 259.353 291.558 259.501 291.204C259.649 290.849 259.723 290.425 259.723 289.931C259.723 289.449 259.65 289.023 259.505 288.655C259.36 288.286 259.145 287.997 258.86 287.787C258.576 287.578 258.224 287.474 257.806 287.474C257.37 287.474 257.007 287.584 256.716 287.805C256.429 288.026 256.212 288.322 256.067 288.694C255.925 289.066 255.854 289.478 255.854 289.931C255.854 290.396 255.926 290.807 256.071 291.164C256.22 291.519 256.437 291.798 256.725 292.001C257.016 292.201 257.376 292.302 257.806 292.302ZM265.423 293.47C264.778 293.47 264.221 293.327 263.754 293.042C263.289 292.755 262.93 292.354 262.677 291.84C262.428 291.323 262.303 290.721 262.303 290.036C262.303 289.35 262.428 288.746 262.677 288.223C262.93 287.697 263.282 287.288 263.732 286.994C264.185 286.698 264.714 286.55 265.318 286.55C265.667 286.55 266.011 286.608 266.351 286.724C266.691 286.84 267 287.029 267.279 287.291C267.558 287.549 267.78 287.892 267.945 288.319C268.111 288.746 268.194 289.272 268.194 289.896V290.332H263.035V289.443H267.148C267.148 289.066 267.073 288.729 266.921 288.432C266.773 288.136 266.561 287.902 266.285 287.731C266.012 287.559 265.69 287.474 265.318 287.474C264.908 287.474 264.554 287.575 264.255 287.779C263.958 287.979 263.73 288.241 263.571 288.563C263.411 288.885 263.331 289.231 263.331 289.6V290.193C263.331 290.698 263.418 291.127 263.592 291.478C263.77 291.827 264.015 292.093 264.329 292.276C264.643 292.456 265.007 292.546 265.423 292.546C265.693 292.546 265.937 292.508 266.155 292.432C266.375 292.354 266.566 292.238 266.725 292.084C266.885 291.927 267.009 291.732 267.096 291.5L268.089 291.779C267.985 292.116 267.809 292.412 267.562 292.668C267.315 292.92 267.01 293.118 266.647 293.26C266.284 293.4 265.876 293.47 265.423 293.47ZM274.499 288.136L273.575 288.397C273.517 288.243 273.432 288.094 273.318 287.949C273.208 287.8 273.057 287.678 272.865 287.583C272.673 287.487 272.428 287.439 272.129 287.439C271.719 287.439 271.378 287.533 271.105 287.722C270.834 287.908 270.699 288.145 270.699 288.432C270.699 288.688 270.792 288.89 270.978 289.038C271.164 289.186 271.455 289.31 271.85 289.408L272.843 289.652C273.442 289.798 273.888 290.02 274.181 290.319C274.474 290.615 274.621 290.997 274.621 291.465C274.621 291.849 274.511 292.191 274.29 292.493C274.072 292.796 273.767 293.034 273.375 293.208C272.983 293.382 272.527 293.47 272.007 293.47C271.324 293.47 270.759 293.321 270.312 293.025C269.864 292.729 269.581 292.296 269.462 291.727L270.438 291.483C270.531 291.843 270.707 292.113 270.965 292.293C271.227 292.473 271.568 292.563 271.989 292.563C272.469 292.563 272.849 292.461 273.131 292.258C273.416 292.052 273.558 291.805 273.558 291.517C273.558 291.285 273.477 291.09 273.314 290.933C273.151 290.774 272.901 290.655 272.564 290.576L271.449 290.315C270.836 290.169 270.386 289.944 270.098 289.639C269.813 289.331 269.671 288.946 269.671 288.485C269.671 288.107 269.777 287.773 269.989 287.482C270.204 287.192 270.496 286.964 270.865 286.798C271.237 286.633 271.658 286.55 272.129 286.55C272.791 286.55 273.311 286.695 273.689 286.986C274.069 287.276 274.339 287.66 274.499 288.136ZM279.08 286.637V287.509H275.611V286.637H279.08ZM276.622 285.033H277.651V291.413C277.651 291.703 277.693 291.921 277.777 292.066C277.864 292.209 277.975 292.305 278.108 292.354C278.245 292.4 278.388 292.424 278.54 292.424C278.653 292.424 278.746 292.418 278.818 292.406C278.891 292.392 278.949 292.38 278.993 292.371L279.202 293.295C279.132 293.321 279.035 293.348 278.91 293.374C278.785 293.403 278.627 293.417 278.435 293.417C278.144 293.417 277.86 293.355 277.581 293.23C277.305 293.105 277.075 292.915 276.892 292.659C276.712 292.403 276.622 292.081 276.622 291.692V285.033ZM280.627 293.33V286.637H281.655V293.33H280.627ZM281.15 285.522C280.949 285.522 280.776 285.453 280.631 285.317C280.489 285.18 280.418 285.016 280.418 284.824C280.418 284.633 280.489 284.468 280.631 284.332C280.776 284.195 280.949 284.127 281.15 284.127C281.35 284.127 281.522 284.195 281.664 284.332C281.809 284.468 281.882 284.633 281.882 284.824C281.882 285.016 281.809 285.18 281.664 285.317C281.522 285.453 281.35 285.522 281.15 285.522ZM286.258 293.47C285.653 293.47 285.123 293.326 284.667 293.038C284.214 292.751 283.86 292.348 283.604 291.831C283.351 291.314 283.225 290.71 283.225 290.018C283.225 289.321 283.351 288.713 283.604 288.193C283.86 287.673 284.214 287.269 284.667 286.981C285.123 286.694 285.653 286.55 286.258 286.55C286.862 286.55 287.391 286.694 287.844 286.981C288.3 287.269 288.654 287.673 288.907 288.193C289.163 288.713 289.29 289.321 289.29 290.018C289.29 290.71 289.163 291.314 288.907 291.831C288.654 292.348 288.3 292.751 287.844 293.038C287.391 293.326 286.862 293.47 286.258 293.47ZM286.258 292.546C286.717 292.546 287.094 292.428 287.391 292.193C287.687 291.957 287.906 291.648 288.049 291.265C288.191 290.881 288.262 290.466 288.262 290.018C288.262 289.571 288.191 289.154 288.049 288.768C287.906 288.381 287.687 288.069 287.391 287.831C287.094 287.593 286.717 287.474 286.258 287.474C285.799 287.474 285.421 287.593 285.125 287.831C284.828 288.069 284.609 288.381 284.467 288.768C284.324 289.154 284.253 289.571 284.253 290.018C284.253 290.466 284.324 290.881 284.467 291.265C284.609 291.648 284.828 291.957 285.125 292.193C285.421 292.428 285.799 292.546 286.258 292.546ZM291.889 289.304V293.33H290.86V286.637H291.854V287.683H291.941C292.098 287.343 292.336 287.07 292.656 286.864C292.975 286.654 293.388 286.55 293.893 286.55C294.346 286.55 294.743 286.643 295.083 286.829C295.423 287.012 295.687 287.291 295.876 287.665C296.064 288.037 296.159 288.508 296.159 289.077V293.33H295.131V289.147C295.131 288.621 294.994 288.212 294.721 287.918C294.448 287.622 294.073 287.474 293.597 287.474C293.268 287.474 292.975 287.545 292.717 287.687C292.461 287.83 292.259 288.037 292.111 288.31C291.963 288.583 291.889 288.915 291.889 289.304ZM302.779 288.136L301.855 288.397C301.797 288.243 301.711 288.094 301.598 287.949C301.488 287.8 301.337 287.678 301.145 287.583C300.953 287.487 300.708 287.439 300.409 287.439C299.999 287.439 299.658 287.533 299.385 287.722C299.114 287.908 298.979 288.145 298.979 288.432C298.979 288.688 299.072 288.89 299.258 289.038C299.444 289.186 299.735 289.31 300.13 289.408L301.123 289.652C301.722 289.798 302.167 290.02 302.461 290.319C302.754 290.615 302.901 290.997 302.901 291.465C302.901 291.849 302.791 292.191 302.57 292.493C302.352 292.796 302.047 293.034 301.655 293.208C301.263 293.382 300.807 293.47 300.287 293.47C299.604 293.47 299.039 293.321 298.591 293.025C298.144 292.729 297.861 292.296 297.742 291.727L298.718 291.483C298.811 291.843 298.987 292.113 299.245 292.293C299.507 292.473 299.848 292.563 300.269 292.563C300.748 292.563 301.129 292.461 301.411 292.258C301.695 292.052 301.838 291.805 301.838 291.517C301.838 291.285 301.756 291.09 301.594 290.933C301.431 290.774 301.181 290.655 300.844 290.576L299.729 290.315C299.116 290.169 298.666 289.944 298.378 289.639C298.093 289.331 297.951 288.946 297.951 288.485C297.951 288.107 298.057 287.773 298.269 287.482C298.484 287.192 298.776 286.964 299.145 286.798C299.517 286.633 299.938 286.55 300.409 286.55C301.071 286.55 301.591 286.695 301.968 286.986C302.349 287.276 302.619 287.66 302.779 288.136Z" fill="black"/>
</svg>
